<?xml version="1.0" encoding="UTF-8" standalone="no"?>
<svg
   xmlns:dc="http://purl.org/dc/elements/1.1/"
   xmlns:cc="http://creativecommons.org/ns#"
   xmlns:rdf="http://www.w3.org/1999/02/22-rdf-syntax-ns#"
   xmlns:svg="http://www.w3.org/2000/svg"
   xmlns="http://www.w3.org/2000/svg"
   id="svg8"
   version="1.1"
   viewBox="0 0 111.50298 112.7476"
   height="112.7476mm"
   width="111.50298mm">
  <defs
     id="defs2" />
  <metadata
     id="metadata5">
    <rdf:RDF>
      <cc:Work
         rdf:about="">
        <dc:format>image/svg+xml</dc:format>
        <dc:type
           rdf:resource="http://purl.org/dc/dcmitype/StillImage" />
        <dc:title></dc:title>
      </cc:Work>
    </rdf:RDF>
  </metadata>
  <g
     style="display:inline"
     transform="translate(-3.0238111,-88.624414)"
     id="layer1">
    <path
       id="path4524"
       d="m 15.607728,104.12143 6.803573,17.76489 17.386907,6.42559 20.78869,-23.43452 -26.83631,2.64583 -13.229169,-18.898806 z"
       style="fill:#3949ab;fill-opacity:1;" />
    <path
       id="path4710"
       d="m 29.86012,112.92558 3.212798,5.48066 6.425594,-1.88988 -0.188986,-4.34673 z"
       style="fill:#f8ffff;stroke:none;stroke-width:0.26458332px;stroke-linecap:butt;stroke-linejoin:miter;stroke-opacity:1;fill-opacity:1" />
  </g>
  <g
     transform="translate(-3.0238111,-1.624414)"
     id="layer2">
    <path
       id="path4522"
       d="m 11.71726,19.500004 -8.3154759,30.61607 29.0124569,21.63243 4.595007,-6.40233 1.65503,-21.6367 -18.631542,-6.44459 z"
       style="display:inline;fill:#e53935;fill-opacity:1;" />
  </g>
  <g
     transform="translate(-3.0238111,-1.624414)"
     id="layer3">
    <path
       id="path4526"
       d="m 41.730008,64.773294 2.4932,-22.594719 20.41072,-21.16667 45.735122,19.27679 -36.663692,9.07143 -17.38691,25.702379 z"
       style="display:inline;fill:#5e35b1;fill-opacity:1;" />
  </g>
  <g
     transform="translate(-3.0238111,-1.624414)"
     id="layer4">
    <path
       id="path4546"
       d="m 3.0238111,54.651784 27.2142849,20.41072 -1.889882,6.80357 21.166664,29.860116 -40.4434489,2.64583 z"
       style="display:inline;fill:#ffb300;fill-opacity:1;" />
  </g>
  <g
     transform="translate(-3.0238111,-1.624414)"
     id="layer5">
    <path
       id="path4544"
       d="m 75.973208,52.761905 -19.27678,27.214289 -16.63095,-12.47321 -5.66965,12.47321 20.41072,30.994046 59.720242,-26.080356 z"
       style="display:inline;fill:#43a047;fill-opacity:1;" />
  </g>
</svg>
